<svg width="75" height="87" viewBox="0 0 75 87" fill="none" xmlns="http://www.w3.org/2000/svg">
<path d="M37.5008 43.9023C42.1943 43.9023 46.7673 43.6199 51.0581 43.078C48.4574 47.9014 43.3612 51.1786 37.5008 51.1786C31.6404 51.1786 26.5426 47.9014 23.9434 43.078C28.2342 43.6199 32.8073 43.9023 37.5008 43.9023Z" fill="#FEE2FF"/>
<path d="M62.9726 21.7588C60.622 21.0292 57.9694 20.3865 55.0545 19.8645C55.117 19.3608 55.1582 18.851 55.175 18.3351C55.1842 18.1244 55.1872 17.9123 55.1872 17.6986C55.1872 17.3918 55.1796 17.0865 55.1643 16.7827C54.6869 7.44881 46.9473 0 37.5008 0C28.0543 0 20.3146 7.44881 19.8372 16.7827C19.8219 17.0865 19.8143 17.3918 19.8143 17.6986C19.8143 17.9123 19.8174 18.1244 19.8265 18.3351C19.8433 18.8495 19.8845 19.3578 19.9455 19.8599C17.1022 20.3667 14.4375 21.0017 12.0106 21.7542C11.4905 21.9145 10.9825 22.0808 10.4853 22.2518C3.99185 24.4941 0.115929 27.5072 0.115929 30.3112C0.115929 34.5652 8.86992 39.1872 22.6423 41.1959C27.1085 41.8462 32.1041 42.2232 37.5008 42.2232C42.8975 42.2232 47.7237 41.8706 52.3592 41.199C56.8544 40.5457 60.9759 39.5932 64.5163 38.3706C71.0081 36.1283 74.8841 33.1152 74.8841 30.3112C74.8841 27.2889 70.4682 24.082 62.9726 21.7588ZM24.3904 17.6543C24.3919 17.1292 24.4255 16.6133 24.4865 16.105C25.2751 9.61935 30.809 4.57919 37.5008 4.57919C44.1925 4.57919 49.7265 9.61935 50.5151 16.105C50.5761 16.6133 50.6096 17.1292 50.6112 17.6543V17.6986C50.6112 18.1992 50.5837 18.6938 50.5273 19.1792C50.3122 21.0978 49.6807 22.8914 48.7273 24.4697C48.1782 24.8757 46.3005 26.5639 37.5008 26.5639C28.701 26.5639 26.9362 24.9444 26.2742 24.4697C25.3208 22.8914 24.6893 21.0978 24.4743 19.1792C24.4178 18.6938 24.3904 18.1992 24.3904 17.6986V17.6543Z" fill="#FEE2FF"/>
<path d="M45.8993 11.4525C45.3045 12.0478 44.3389 12.0478 43.7425 11.4525C42.0753 9.78418 39.859 8.86529 37.5008 8.86529C33.3305 8.86529 29.8267 11.7746 28.9085 15.67C28.791 16.1706 28.7147 16.6881 28.6873 17.2177C28.6781 17.3765 28.6736 17.5367 28.6736 17.6985C28.6736 18.0511 28.6934 18.3992 28.7361 18.7441C28.8307 19.5684 29.0412 20.3697 29.3661 21.1375C29.694 21.9129 29.331 22.8089 28.5546 23.1371C28.3609 23.2195 28.1595 23.2577 27.9612 23.2577C27.3679 23.2577 26.8019 22.9081 26.5564 22.3266C26.111 21.2718 25.8227 20.1683 25.6976 19.0357C25.6473 18.5945 25.6228 18.1488 25.6228 17.6985C25.6228 17.636 25.6228 17.5719 25.6259 17.5093C25.632 16.9842 25.6747 16.4667 25.751 15.96C26.593 10.2268 31.5412 5.8125 37.5008 5.8125C40.6735 5.8125 43.6571 7.04888 45.8993 9.29421C46.4958 9.8895 46.4958 10.8557 45.8993 11.4525Z" fill="#FEE2FF"/>
<path d="M71.2476 68.4833C70.3599 67.8681 69.3165 67.285 68.1207 66.7371L70.1921 72.0123C70.456 72.6839 70.424 74.2988 70.424 74.3843C70.424 74.7598 70.0975 75.3749 69.1945 76.1107C69.1869 76.1183 69.1777 76.1259 69.1686 76.1336C69.0832 76.2022 68.9932 76.2725 68.8971 76.3442C68.8971 76.3457 68.8925 76.3473 68.891 76.3488C67.6097 77.2997 65.3918 78.4216 61.7554 79.4886C55.3077 81.3798 46.6941 82.4208 37.4992 82.4208C28.3044 82.4208 19.6923 81.3798 13.2446 79.4886C9.62497 78.4262 7.41168 77.3104 6.12734 76.3625C6.04039 76.2984 5.95802 76.2358 5.88023 76.1732C5.8543 76.1549 5.82837 76.132 5.80396 76.1107C5.80396 76.1107 5.80295 76.1096 5.80091 76.1076C4.90248 75.3734 4.57605 74.7598 4.57605 74.3843C4.57605 74.3004 4.5425 72.6854 4.80638 72.0123L6.87781 66.7371C5.68193 67.285 4.63859 67.8681 3.75084 68.4833C1.26147 70.2081 0 72.1939 0 74.3843C0 76.5747 1.26147 78.559 3.75084 80.2854C5.72617 81.6545 8.48705 82.865 11.9572 83.8831C18.8106 85.8933 27.8819 87 37.4992 87C47.1166 87 56.1878 85.8933 63.0412 83.8831C66.5114 82.865 69.2723 81.6545 71.2476 80.2854C73.737 78.559 75 76.5732 75 74.3843C75 72.1955 73.737 70.2081 71.2476 68.4833Z" fill="#FEE2FF"/>
<path d="M21.6859 45.2974L14.2376 64.2705L12.1372 69.6205L10.3434 74.189C9.98953 75.0911 9.12618 75.6421 8.21402 75.6421C7.93488 75.6421 7.65269 75.5918 7.37813 75.4834C6.20208 75.0209 5.62245 73.6914 6.08463 72.5146L6.12734 72.4047L8.64264 65.9968L17.4271 43.6229C17.4485 43.5665 17.4729 43.5115 17.4988 43.4581C17.5248 43.4047 17.5537 43.3528 17.5827 43.3024C17.6132 43.2505 17.6437 43.2016 17.6773 43.1543C17.7109 43.107 17.7444 43.0597 17.781 43.0154C17.8176 42.9712 17.8558 42.9284 17.8939 42.8872C17.9336 42.8445 17.9747 42.8048 18.0159 42.7666C18.0586 42.7285 18.1013 42.6918 18.1456 42.6567C18.1898 42.6216 18.2356 42.5896 18.2829 42.5575C18.3759 42.4949 18.4735 42.44 18.5757 42.3911C18.6261 42.3682 18.6779 42.3453 18.7298 42.3255C18.7572 42.3148 18.7832 42.3057 18.8091 42.2965C18.8625 42.2782 18.9159 42.2614 18.9708 42.2461C19.1615 42.1957 19.3582 42.1698 19.5581 42.1698C19.8357 42.1698 20.1194 42.2202 20.3939 42.3285C21.57 42.791 22.1481 44.1205 21.6859 45.2974Z" fill="#FEE2FF"/>
<path d="M5.88023 76.1732C5.95954 76.2419 6.04191 76.3045 6.12733 76.3625C6.04039 76.2984 5.95802 76.2358 5.88023 76.1732Z" fill="#FEE2FF"/>
<path d="M67.6219 75.4834C67.3473 75.5918 67.0636 75.6421 66.786 75.6421C65.8723 75.6421 65.0089 75.0911 64.6551 74.189L62.8612 69.6205L60.7608 64.2705L53.3126 45.2974C52.8504 44.1205 53.4285 42.791 54.606 42.3285C54.6411 42.3148 54.6747 42.3011 54.7098 42.2904C54.7449 42.2782 54.7799 42.2675 54.8135 42.2583C54.8486 42.2476 54.8821 42.2385 54.9172 42.2309C54.9874 42.2156 55.0576 42.2019 55.1262 42.1912C55.1537 42.1881 55.1796 42.1851 55.207 42.182C55.2253 42.1805 55.2421 42.179 55.2604 42.1774C55.265 42.1759 55.2711 42.1759 55.2757 42.1759H55.2864C55.3382 42.1713 55.3901 42.1698 55.4404 42.1698C55.4847 42.1698 55.5289 42.1713 55.5731 42.1744C55.5853 42.1744 55.5991 42.1744 55.6113 42.1744C55.6524 42.1774 55.6936 42.182 55.7348 42.1881C55.7501 42.1896 55.7638 42.1912 55.779 42.1942C55.8065 42.1973 55.8355 42.2019 55.8629 42.208C55.8843 42.211 55.9056 42.2156 55.927 42.2217C55.9606 42.2278 55.9941 42.2354 56.0277 42.2446C56.0551 42.2522 56.0826 42.2599 56.1085 42.269C56.136 42.2767 56.1619 42.2858 56.1878 42.295C56.2153 42.3041 56.2412 42.3133 56.2687 42.324C56.3205 42.3438 56.3724 42.3667 56.4227 42.3896C56.4624 42.4094 56.5021 42.4293 56.5417 42.4522C56.5768 42.4705 56.6104 42.4903 56.6439 42.5102C56.6775 42.5316 56.711 42.5529 56.7431 42.5758C56.7797 42.6002 56.8163 42.6277 56.8529 42.6552C56.8971 42.6903 56.9398 42.7269 56.9825 42.7651C57.0237 42.8033 57.0649 42.8429 57.1046 42.8857C57.1427 42.9269 57.1808 42.9696 57.2174 43.0139C57.2541 43.0582 57.2876 43.1055 57.3212 43.1528C57.3547 43.2001 57.3852 43.249 57.4157 43.2993C57.4447 43.3512 57.4737 43.4031 57.4996 43.4566C57.5256 43.51 57.55 43.5649 57.5713 43.6214L66.3543 65.9953H66.3558L68.8696 72.4016L68.9138 72.513C69.376 73.6899 68.7979 75.0194 67.6219 75.4819V75.4834Z" fill="#FEE2FF"/>
<path d="M68.8971 76.3442C68.9916 76.2786 69.0816 76.2068 69.1686 76.1335C69.0832 76.2022 68.9932 76.2724 68.8971 76.3442Z" fill="#FEE2FF"/>
<path d="M23.6506 53.2025L19.6008 63.1653L17.5507 68.2085L16.4982 70.7973C16.2572 71.3896 15.6867 71.7483 15.0842 71.7483C14.8935 71.7483 14.6983 71.7131 14.5107 71.6353C13.7297 71.3178 13.3545 70.4279 13.6733 69.6464L13.899 69.0923L16.0284 63.8522L20.8241 52.0532C21.1414 51.2716 22.0322 50.8962 22.8116 51.2136C23.5926 51.5311 23.9678 52.4226 23.6506 53.2025Z" fill="#FEE2FF"/>
<path d="M60.4878 71.6353C60.3002 71.7131 60.1049 71.7483 59.9143 71.7483C59.3118 71.7483 58.7413 71.3896 58.5003 70.7973L57.4478 68.2085L55.3992 63.1653H55.3977L51.3494 53.2025C51.0306 52.4226 51.4059 51.5311 52.1868 51.2136C52.9678 50.8962 53.8571 51.2716 54.1744 52.0532L58.9716 63.8522L61.101 69.0923L61.3267 69.6464C61.644 70.4279 61.2688 71.3178 60.4878 71.6353Z" fill="#FEE2FF"/>
<path d="M43.9774 72.7496C43.9744 72.7313 43.953 72.7221 43.9377 72.7313C43.7028 72.8702 43.4786 73.0228 43.2361 73.1404C41.8053 73.8364 40.6415 73.5296 39.5203 72.4C39.4364 72.3146 39.3525 72.2779 39.232 72.2795C37.7143 72.284 37.7082 72.284 36.1905 72.2795C35.9068 72.2795 35.6734 72.3634 35.5514 72.6336C35.5056 72.7343 35.4858 72.8564 35.4858 72.9679C35.4812 74.6912 35.472 76.416 35.4888 78.1393C35.4934 78.6659 34.4272 78.8262 33.7743 78.8888C33.5547 78.875 33.3335 78.8872 33.1139 78.8857C32.8728 78.8857 32.8027 78.8247 32.7737 78.5835C32.7051 78.0019 32.6395 77.4188 32.5708 76.8373C32.4946 76.1855 32.4366 75.5307 32.3329 74.885C32.2093 74.1142 32.2795 72.8763 31.6663 72.3894C30.2859 71.2934 29.3783 69.8922 28.9161 68.1948C28.7407 67.5492 28.097 67.5049 27.9078 66.8623C27.7965 66.4837 27.5356 66.2929 27.1436 66.2929C25.992 66.2929 24.8831 65.8686 23.7314 65.8732C23.4141 65.8732 23.1838 65.7465 23.0298 65.4717C22.9398 65.3099 22.8284 65.1573 22.7628 64.9863C22.5874 64.5254 22.6728 64.0995 23.0298 63.7606C23.9495 62.8891 24.8297 62.4434 25.7647 61.5886C26.3535 61.0498 27.0597 60.7475 27.8468 60.6331C27.9002 60.6254 27.9292 60.5659 27.9048 60.5186C27.9002 60.5094 27.8956 60.5018 27.8895 60.4926C27.6333 60.0958 27.0216 59.734 26.593 59.5356C26.5701 59.5249 26.5411 59.5218 26.5259 59.5051C26.5182 59.4959 26.5106 59.4867 26.503 59.4761C26.4648 59.4211 26.4893 59.3433 26.5533 59.3249C26.5579 59.3249 26.5625 59.3234 26.567 59.3219C26.9057 59.2944 27.5067 59.4028 27.8239 59.531C28.251 59.702 28.611 59.9645 28.8963 60.3263C28.9146 60.3492 28.9329 60.3736 28.9542 60.3949C28.9603 60.4011 28.9725 60.4026 28.9634 60.3995C29.119 60.2057 29.2593 60.0042 29.4271 59.8302C29.662 59.586 30.2828 59.2211 30.6169 59.1616C30.8106 59.1265 30.8884 59.1937 30.8914 59.3906C30.899 59.7554 31.1324 60.3217 31.1736 60.6834C31.2514 61.384 31.6144 61.9351 32.3237 61.9397C33.8369 61.9488 35.0236 61.9534 36.5352 61.958C39.6302 61.9687 42.2919 61.9793 45.3868 61.9916C47.1913 61.9992 48.7045 63.2691 49.0263 65.0489C49.0645 65.2596 49.0751 65.4778 49.0767 65.6915C49.0812 66.7234 49.0812 67.7568 49.0767 68.7886C49.0767 68.9077 49.1041 68.987 49.2048 69.0649C49.7234 69.4739 49.8195 70.7149 49.4183 71.243C49.1316 71.6216 48.1187 71.7071 48.1187 71.6399C48.1157 69.6296 48.1309 68.0941 48.1111 66.0854C48.0989 64.8856 47.5498 64.0125 46.5202 63.4691C46.4897 63.4538 46.4622 63.4935 46.4881 63.5149C46.6605 63.666 46.9107 63.8889 46.9656 63.9682C47.1318 64.1636 47.3561 64.791 47.3576 65.5862C47.3652 68.4131 47.3683 71.2385 47.3698 74.0653C47.3698 75.404 47.3622 76.7411 47.3576 78.0798C47.3561 78.6094 47.08 78.8857 46.5492 78.8857C46.3692 78.8857 46.1892 78.8857 46.0076 78.8857C45.8033 78.8842 45.1275 78.846 45.0894 78.6461C44.8713 77.5013 44.6547 76.3565 44.4381 75.2101C44.2825 74.3889 44.1284 73.5677 43.9713 72.7481L43.9774 72.7496Z" fill="#FEE2FF"/>
</svg>
