<svg width="73" height="73" viewBox="0 0 73 73" fill="none" xmlns="http://www.w3.org/2000/svg">
<path d="M54.2842 73H18.7158C8.39605 73 0 64.604 0 54.2842V18.7158C0 8.39605 8.39605 0 18.7158 0H54.2857C64.6054 0 73.0015 8.39605 73.0015 18.7158V54.2842C73.0015 64.604 64.6054 73 54.2857 73H54.2842ZM18.7158 4.28144C10.7567 4.28144 4.28144 10.7567 4.28144 18.7158V54.2842C4.28144 62.2433 10.7567 68.7186 18.7158 68.7186H54.2857C62.2447 68.7186 68.72 62.2433 68.72 54.2842V18.7158C68.72 10.7567 62.2447 4.28144 54.2857 4.28144H18.7158Z" fill="#F6E2EF"/>
<path d="M36.5 55.2143C26.1803 55.2143 17.7842 46.8183 17.7842 36.4985C17.7842 26.1788 26.1803 17.7827 36.5 17.7827C46.8197 17.7827 55.2158 26.1788 55.2158 36.4985C55.2158 46.8183 46.8197 55.2143 36.5 55.2143ZM36.5 22.0656C28.541 22.0656 22.0656 28.5409 22.0656 36.5C22.0656 44.459 28.541 50.9343 36.5 50.9343C44.459 50.9343 50.9344 44.459 50.9344 36.5C50.9344 28.5409 44.459 22.0656 36.5 22.0656Z" fill="#F6E2EF"/>
<path d="M56.701 20.2675C58.9792 20.2675 60.826 18.4207 60.826 16.1425C60.826 13.8644 58.9792 12.0176 56.701 12.0176C54.4229 12.0176 52.5761 13.8644 52.5761 16.1425C52.5761 18.4207 54.4229 20.2675 56.701 20.2675Z" fill="#F6E2EF"/>
</svg>
